<svg xmlns="http://www.w3.org/2000/svg" xmlns:xlink="http://www.w3.org/1999/xlink" id="processonSvg1000" viewBox="-1.0 -9.0 770.0 589.0" width="770.0" height="589.0"><defs id="ProcessOnDefs1001"><marker id="ProcessOnMarker1009" markerUnits="userSpaceOnUse" orient="auto" markerWidth="16.23606797749979" markerHeight="10.550836550532098" viewBox="-1.0 -1.3763819204711736 16.23606797749979 10.550836550532098" refX="-1.0" refY="3.8990363547948754"><path id="ProcessOnPath1010" d="M12.0 3.8990363547948754L0.0 7.798072709589751V0.0Z" stroke="#323232" stroke-width="2.0" fill="#323232" transform="matrix(1.0,0.0,0.0,1.0,0.0,0.0)"/></marker><marker id="ProcessOnMarker1038" markerUnits="userSpaceOnUse" orient="auto" markerWidth="16.23606797749979" markerHeight="10.550836550532098" viewBox="-1.0 -1.3763819204711736 16.23606797749979 10.550836550532098" refX="-1.0" refY="3.8990363547948754"><path id="ProcessOnPath1039" d="M12.0 3.8990363547948754L0.0 7.798072709589751V0.0Z" stroke="#323232" stroke-width="2.0" fill="#323232" transform="matrix(1.0,0.0,0.0,1.0,0.0,0.0)"/></marker><marker id="ProcessOnMarker1045" markerUnits="userSpaceOnUse" orient="auto" markerWidth="16.23606797749979" markerHeight="10.550836550532098" viewBox="-1.0 -1.3763819204711736 16.23606797749979 10.550836550532098" refX="-1.0" refY="3.8990363547948754"><path id="ProcessOnPath1046" d="M12.0 3.8990363547948754L0.0 7.798072709589751V0.0Z" stroke="#323232" stroke-width="2.0" fill="#323232" transform="matrix(1.0,0.0,0.0,1.0,0.0,0.0)"/></marker><marker id="ProcessOnMarker1052" markerUnits="userSpaceOnUse" orient="auto" markerWidth="16.23606797749979" markerHeight="10.550836550532098" viewBox="-1.0 -1.3763819204711736 16.23606797749979 10.550836550532098" refX="-1.0" refY="3.8990363547948754"><path id="ProcessOnPath1053" d="M12.0 3.8990363547948754L0.0 7.798072709589751V0.0Z" stroke="#323232" stroke-width="2.0" fill="#323232" transform="matrix(1.0,0.0,0.0,1.0,0.0,0.0)"/></marker><marker id="ProcessOnMarker1059" markerUnits="userSpaceOnUse" orient="auto" markerWidth="16.23606797749979" markerHeight="10.550836550532098" viewBox="-1.0 -1.3763819204711736 16.23606797749979 10.550836550532098" refX="15.23606797749979" refY="3.8990363547948754"><path id="ProcessOnPath1060" d="M12.0 3.8990363547948754L0.0 7.798072709589751V0.0Z" stroke="#323232" stroke-width="2.0" fill="#323232" transform="matrix(-1.0,1.2246467991473532E-16,-1.2246467991473532E-16,-1.0,14.23606797749979,7.798072709589751)"/></marker><marker id="ProcessOnMarker1063" markerUnits="userSpaceOnUse" orient="auto" markerWidth="16.23606797749979" markerHeight="10.550836550532098" viewBox="-1.0 -1.3763819204711736 16.23606797749979 10.550836550532098" refX="15.23606797749979" refY="3.8990363547948754"><path id="ProcessOnPath1064" d="M12.0 3.8990363547948754L0.0 7.798072709589751V0.0Z" stroke="#323232" stroke-width="2.0" fill="#323232" transform="matrix(-1.0,1.2246467991473532E-16,-1.2246467991473532E-16,-1.0,14.23606797749979,7.798072709589751)"/></marker><marker id="ProcessOnMarker1067" markerUnits="userSpaceOnUse" orient="auto" markerWidth="16.23606797749979" markerHeight="10.550836550532098" viewBox="-1.0 -1.3763819204711736 16.23606797749979 10.550836550532098" refX="-1.0" refY="3.8990363547948754"><path id="ProcessOnPath1068" d="M12.0 3.8990363547948754L0.0 7.798072709589751V0.0Z" stroke="#323232" stroke-width="2.0" fill="#323232" transform="matrix(1.0,0.0,0.0,1.0,0.0,0.0)"/></marker></defs><g id="ProcessOnG1002"><path id="ProcessOnPath1003" d="M-1.0 -9.0H769.0V580.0H-1.0V-9.0Z" fill="none"/><g id="ProcessOnG1004"><g id="ProcessOnG1005" transform="matrix(1.0,0.0,0.0,1.0,19.0,11.0)" opacity="1.0"><path id="ProcessOnPath1006" d="M0.0 0.0L730.0 0.0L730.0 380.0L0.0 380.0Z" stroke="#323232" stroke-width="2.0" stroke-dasharray="none" opacity="1.0" fill="none"/></g><g id="ProcessOnG1007"><path id="ProcessOnPath1008" d="M610.0 120.0L640.0 120.0L640.0 365.0L340.0 365.0L340.0 350.2360679774998" stroke="#323232" stroke-width="2.0" stroke-dasharray="none" fill="none" marker-end="url(#ProcessOnMarker1009)"/><g id="ProcessOnG1011" transform="matrix(1.0,0.0,0.0,1.0,620.1180339887499,356.875)"><path id="ProcessOnPath1012" d="M0 0H230.0V16.25H0Z" fill="#fff" transform="matrix(1.0,0.0,0.0,1.0,-115.0,0.0)"/><text id="ProcessOnText1013" fill="#000000" font-size="13" x="0.0" y="13.325" font-family="Arial" font-weight="normal" font-style="normal" text-decoration="none" family="Arial" text-anchor="middle" size="13">4. 该玩家的 Profile（带有 properties 和签名）</text></g></g><g id="ProcessOnG1014" transform="matrix(1.0,0.0,0.0,1.0,30.0,20.0)" opacity="1.0"><path id="ProcessOnPath1015" d="M0.0 0.0L100.0 0.0L100.0 70.0L0.0 70.0Z" stroke="#323232" stroke-width="2.0" stroke-dasharray="none" opacity="1.0" fill="none"/><g id="ProcessOnG1016" transform="matrix(1.0,0.0,0.0,1.0,10.0,26.875)"><text id="ProcessOnText1017" fill="#000000" font-size="13" x="39.0" y="13.325" font-family="Arial" font-weight="normal" font-style="normal" text-decoration="none" family="Arial" text-anchor="middle" size="13">......</text></g></g><g id="ProcessOnG1018" transform="matrix(1.0,0.0,0.0,1.0,140.0,20.0)" opacity="1.0"><path id="ProcessOnPath1019" d="M0.0 0.0L100.0 0.0L100.0 70.0L0.0 70.0Z" stroke="#323232" stroke-width="2.0" stroke-dasharray="none" opacity="1.0" fill="none"/><g id="ProcessOnG1020" transform="matrix(1.0,0.0,0.0,1.0,10.0,18.75)"><text id="ProcessOnText1021" fill="#000000" font-size="13" x="39.0" y="13.325" font-family="Arial" font-weight="normal" font-style="normal" text-decoration="none" family="Arial" text-anchor="middle" size="13">其他玩家的 MC </text><text id="ProcessOnText1022" fill="#000000" font-size="13" x="39.0" y="29.575" font-family="Arial" font-weight="normal" font-style="normal" text-decoration="none" family="Arial" text-anchor="middle" size="13">客户端</text></g></g><g id="ProcessOnG1023" transform="matrix(1.0,0.0,0.0,1.0,290.0,85.0)" opacity="1.0"><path id="ProcessOnPath1024" d="M0.0 0.0L100.0 0.0L100.0 70.0L0.0 70.0Z" stroke="#323232" stroke-width="2.0" stroke-dasharray="none" opacity="1.0" fill="none"/><g id="ProcessOnG1025" transform="matrix(1.0,0.0,0.0,1.0,10.0,18.75)"><text id="ProcessOnText1026" fill="#000000" font-size="13" x="39.0" y="13.325" font-family="Arial" font-weight="normal" font-style="normal" text-decoration="none" family="Arial" text-anchor="middle" size="13">待进服玩家的</text><text id="ProcessOnText1027" fill="#000000" font-size="13" x="39.0" y="29.575" font-family="Arial" font-weight="normal" font-style="normal" text-decoration="none" family="Arial" text-anchor="middle" size="13"> MC 客户端</text></g></g><g id="ProcessOnG1028" transform="matrix(1.0,0.0,0.0,1.0,290.0,265.0)" opacity="1.0"><path id="ProcessOnPath1029" d="M0.0 0.0L100.0 0.0L100.0 70.0L0.0 70.0Z" stroke="#323232" stroke-width="2.0" stroke-dasharray="none" opacity="1.0" fill="none"/><g id="ProcessOnG1030" transform="matrix(1.0,0.0,0.0,1.0,10.0,26.875)"><text id="ProcessOnText1031" fill="#000000" font-size="13" x="39.0" y="13.325" font-family="Arial" font-weight="normal" font-style="normal" text-decoration="none" family="Arial" text-anchor="middle" size="13">MC服务端</text></g></g><g id="ProcessOnG1032" transform="matrix(1.0,0.0,0.0,1.0,510.0,85.0)" opacity="1.0"><path id="ProcessOnPath1033" d="M0.0 0.0L100.0 0.0L100.0 70.0L0.0 70.0Z" stroke="#323232" stroke-width="2.0" stroke-dasharray="none" opacity="1.0" fill="none"/><g id="ProcessOnG1034" transform="matrix(1.0,0.0,0.0,1.0,10.0,26.875)"><text id="ProcessOnText1035" fill="#000000" font-size="13" x="39.0" y="13.325" font-family="Arial" font-weight="normal" font-style="normal" text-decoration="none" family="Arial" text-anchor="middle" size="13">Yggdrasil 端</text></g></g><g id="ProcessOnG1036"><path id="ProcessOnPath1037" d="M340.0 265.0L340.0 210.0L340.0 210.0L340.0 170.2360679774998" stroke="#323232" stroke-width="2.0" stroke-dasharray="none" fill="none" marker-end="url(#ProcessOnMarker1038)"/><g id="ProcessOnG1040" transform="matrix(1.0,0.0,0.0,1.0,340.0,209.49303398874991)"><path id="ProcessOnPath1041" d="M0 0H83.0V16.25H0Z" fill="#fff" transform="matrix(1.0,0.0,0.0,1.0,-41.5,0.0)"/><text id="ProcessOnText1042" fill="#000000" font-size="13" x="-41.5" y="13.325" font-family="Arial" font-weight="normal" font-style="normal" text-decoration="none" family="Arial" text-anchor="start" size="13">1. 发送 serverId</text></g></g><g id="ProcessOnG1043"><path id="ProcessOnPath1044" d="M390.0 120.0L450.0 120.0L450.0 120.0L494.7639320225002 120.0" stroke="#323232" stroke-width="2.0" stroke-dasharray="none" fill="none" marker-end="url(#ProcessOnMarker1045)"/><g id="ProcessOnG1047" transform="matrix(1.0,0.0,0.0,1.0,442.38196601125014,111.875)"><path id="ProcessOnPath1048" d="M0 0H71.0V16.25H0Z" fill="#fff" transform="matrix(1.0,0.0,0.0,1.0,-35.5,0.0)"/><text id="ProcessOnText1049" fill="#000000" font-size="13" x="0.0" y="13.325" font-family="Arial" font-weight="normal" font-style="normal" text-decoration="none" family="Arial" text-anchor="middle" size="13">2. joinServer</text></g></g><g id="ProcessOnG1050"><path id="ProcessOnPath1051" d="M390.0 300.0L560.0 300.0L560.0 170.2360679774998" stroke="#323232" stroke-width="2.0" stroke-dasharray="none" fill="none" marker-end="url(#ProcessOnMarker1052)"/><g id="ProcessOnG1054" transform="matrix(1.0,0.0,0.0,1.0,539.8819660112501,291.875)"><path id="ProcessOnPath1055" d="M0 0H109.0V16.25H0Z" fill="#fff" transform="matrix(1.0,0.0,0.0,1.0,-54.5,0.0)"/><text id="ProcessOnText1056" fill="#000000" font-size="13" x="0.0" y="13.325" font-family="Arial" font-weight="normal" font-style="normal" text-decoration="none" family="Arial" text-anchor="middle" size="13">3. hasJoinedServer</text></g></g><g id="ProcessOnG1057"><path id="ProcessOnPath1058" d="M80.0 105.23606797749979L80.0 120.0L190.0 120.0L190.0 90.0" stroke="#323232" stroke-width="2.0" stroke-dasharray="none" fill="none" marker-start="url(#ProcessOnMarker1059)"/></g><g id="ProcessOnG1061"><path id="ProcessOnPath1062" d="M274.7639320225002 120.0L190.0 120.0L190.0 90.0" stroke="#323232" stroke-width="2.0" stroke-dasharray="none" fill="none" marker-start="url(#ProcessOnMarker1063)"/></g><g id="ProcessOnG1065"><path id="ProcessOnPath1066" d="M290.0 300.0L190.0 300.0L190.0 105.23606797749979" stroke="#323232" stroke-width="2.0" stroke-dasharray="none" fill="none" marker-end="url(#ProcessOnMarker1067)"/><g id="ProcessOnG1069" transform="matrix(1.0,0.0,0.0,1.0,190.0,244.49303398874991)"><path id="ProcessOnPath1070" d="M0 0H115.0V16.25H0Z" fill="#fff" transform="matrix(1.0,0.0,0.0,1.0,-57.5,0.0)"/><text id="ProcessOnText1071" fill="#000000" font-size="13" x="0.0" y="13.325" font-family="Arial" font-weight="normal" font-style="normal" text-decoration="none" family="Arial" text-anchor="middle" size="13">5. 新进服玩家的 Profile</text></g></g><g id="ProcessOnG1072" transform="matrix(1.0,0.0,0.0,1.0,30.0,400.0)" opacity="1.0"><path id="ProcessOnPath1073" d="M0.0 0.0L660.0 0.0L660.0 160.0L0.0 160.0Z" stroke="none" stroke-width="0.0" stroke-dasharray="none" opacity="1.0" fill="none"/><g id="ProcessOnG1074" transform="matrix(1.0,0.0,0.0,1.0,0.0,0.0)"><text id="ProcessOnText1075" fill="#000000" font-size="13" x="0.0" y="13.325" font-family="Arial" font-weight="normal" font-style="normal" text-decoration="none" family="Arial" text-anchor="start" size="13">1. 服务端向待进服的玩家发送 serverId，其可以被视为一个随机的字符串。</text><text id="ProcessOnText1076" fill="#000000" font-size="13" x="0.0" y="29.575" font-family="Arial" font-weight="normal" font-style="normal" text-decoration="none" family="Arial" text-anchor="start" size="13"></text><text id="ProcessOnText1077" fill="#000000" font-size="13" x="0.0" y="45.825" font-family="Arial" font-weight="normal" font-style="normal" text-decoration="none" family="Arial" text-anchor="start" size="13">2. 客户端将该 serverId 连同自己的 accessToken 发送给 Yggdrasil 端，请求验证。</text><text id="ProcessOnText1078" fill="#000000" font-size="13" x="0.0" y="62.075" font-family="Arial" font-weight="normal" font-style="normal" text-decoration="none" family="Arial" text-anchor="start" size="13"></text><text id="ProcessOnText1079" fill="#000000" font-size="13" x="0.0" y="78.325" font-family="Arial" font-weight="normal" font-style="normal" text-decoration="none" family="Arial" text-anchor="start" size="13">3. 服务端将 serverId 及玩家的名字发送给 Yggdrasil 端，查询玩家是否已完成验证。</text><text id="ProcessOnText1080" fill="#000000" font-size="13" x="0.0" y="94.575" font-family="Arial" font-weight="normal" font-style="normal" text-decoration="none" family="Arial" text-anchor="start" size="13"></text><text id="ProcessOnText1081" fill="#000000" font-size="13" x="0.0" y="110.825" font-family="Arial" font-weight="normal" font-style="normal" text-decoration="none" family="Arial" text-anchor="start" size="13">4. 若玩家验证成功，则 Yggdrasil 端将玩家的 Profile 返回给服务端，其中包含材质信息和数字签名。</text><text id="ProcessOnText1082" fill="#000000" font-size="13" x="0.0" y="127.075" font-family="Arial" font-weight="normal" font-style="normal" text-decoration="none" family="Arial" text-anchor="start" size="13"></text><text id="ProcessOnText1083" fill="#000000" font-size="13" x="0.0" y="143.325" font-family="Arial" font-weight="normal" font-style="normal" text-decoration="none" family="Arial" text-anchor="start" size="13">5. 服务端将该玩家的 Profile 分发给服内所有玩家。</text></g></g></g></g></svg>